<svg width="91" height="91" fill="none" xmlns="http://www.w3.org/2000/svg"><circle cx="45.5" cy="45.5" r="45.5" fill="url(#paint0_linear_129_9)"/><g clip-path="url(#clip0_129_9)"><path d="M36.616 28.539c2.092 1.525 3.722 3.606 5.113 5.598l.81 1.179.763 1.126a2.754 2.754 0 01-.469 3.636l-3.572 2.652a.88.88 0 00-.26 1.128c.81 1.47 2.248 3.66 3.896 5.307 1.65 1.648 3.942 3.182 5.514 4.083a.884.884 0 001.18-.297l2.324-3.538a2.752 2.752 0 013.764-.608l1.214.84c2.268 1.574 4.705 3.363 6.569 5.749a2.691 2.691 0 01.346 2.716c-1.533 3.576-5.41 6.62-9.443 6.472l-.55-.031-.426-.037-.472-.055-.515-.07-.558-.09a22.52 22.52 0 01-.293-.056l-.615-.131a22.07 22.07 0 01-.322-.074l-.67-.172-.705-.201-.736-.238c-3.38-1.146-7.67-3.398-12.07-7.8-4.4-4.398-6.651-8.688-7.797-12.067l-.238-.736-.202-.705-.172-.67-.143-.633c-.04-.199-.08-.398-.115-.597l-.091-.559-.074-.514-.053-.473-.036-.426-.03-.55c-.148-4.02 2.93-7.925 6.488-9.45a2.692 2.692 0 012.646.292zm14.893 6.581l.212.024a6.408 6.408 0 015.232 5.419 1.83 1.83 0 01-3.584.72l-.042-.211a2.746 2.746 0 00-1.96-2.258l-.283-.064a1.83 1.83 0 01.425-3.63zm.014-5.565a10.985 10.985 0 0110.985 10.984 1.83 1.83 0 01-3.649.214l-.013-.214a7.32 7.32 0 00-6.843-7.306l-.48-.017a1.83 1.83 0 110-3.661z" fill="#fff"/></g><defs><linearGradient id="paint0_linear_129_9" x1="45.5" y1="0" x2="45.5" y2="91" gradientUnits="userSpaceOnUse"><stop stop-color="#D9BAF8"/><stop offset="1" stop-color="#8E33E9"/></linearGradient><clipPath id="clip0_129_9"><path fill="#fff" transform="translate(24.063 24.063)" d="M0 0h43.938v43.938H0z"/></clipPath></defs></svg>