<svg width="29" height="52" fill="none" xmlns="http://www.w3.org/2000/svg"><circle cx="14.5" cy="32.5" r="14.5" fill="url(#paint0_radial_134_6)" fill-opacity=".67"/><path d="M11.316 40.41c-2.023 0-4.004-.287-5.945-.861-1.913-.601-3.526-1.421-4.838-2.46l2.255-4.141c1.039.847 2.296 1.53 3.772 2.05 1.503.52 3.061.779 4.674.779 1.886 0 3.362-.396 4.428-1.189 1.093-.793 1.64-1.859 1.64-3.198 0-.902-.232-1.695-.697-2.378-.437-.683-1.23-1.203-2.378-1.558-1.12-.355-2.665-.533-4.633-.533H2.665L4.141 11.3h16.851v4.469H6.109l2.788-2.542L7.79 24.912l-2.788-2.501h5.781c2.843 0 5.125.383 6.847 1.148 1.75.738 3.02 1.777 3.813 3.116.82 1.312 1.23 2.815 1.23 4.51 0 1.667-.41 3.198-1.23 4.592-.82 1.394-2.077 2.515-3.772 3.362-1.667.847-3.786 1.271-6.355 1.271z" fill="#000"/><defs><radialGradient id="paint0_radial_134_6" cx="0" cy="0" r="1" gradientUnits="userSpaceOnUse" gradientTransform="matrix(0 29 -12.3868 0 14.5 18)"><stop stop-color="#FC9F96"/><stop offset="1" stop-color="#F74030"/></radialGradient></defs></svg>