<svg width="29" height="52" fill="none" xmlns="http://www.w3.org/2000/svg"><circle cx="14.5" cy="32.5" r="14.5" fill="url(#paint0_radial_134_3)" fill-opacity=".67"/><path d="M1.435 40v-3.567l11.398-10.824c.957-.902 1.667-1.695 2.132-2.378.465-.683.765-1.312.902-1.886a6.412 6.412 0 00.246-1.681c0-1.312-.451-2.323-1.353-3.034-.902-.738-2.228-1.107-3.977-1.107-1.394 0-2.665.246-3.813.738-1.12.492-2.091 1.244-2.911 2.255l-3.731-2.87c1.12-1.503 2.624-2.665 4.51-3.485 1.913-.847 4.045-1.271 6.396-1.271 2.077 0 3.881.342 5.412 1.025 1.558.656 2.747 1.599 3.567 2.829.847 1.23 1.271 2.692 1.271 4.387 0 .93-.123 1.859-.369 2.788-.246.902-.71 1.859-1.394 2.87-.683 1.011-1.681 2.146-2.993 3.403l-9.799 9.307-1.107-2.009h16.769V40H1.435z" fill="#000"/><defs><radialGradient id="paint0_radial_134_3" cx="0" cy="0" r="1" gradientUnits="userSpaceOnUse" gradientTransform="matrix(0 29 -12.3868 0 14.5 18)"><stop stop-color="#FC9F96"/><stop offset="1" stop-color="#F74030"/></radialGradient></defs></svg>