<svg width="29" height="52" fill="none" xmlns="http://www.w3.org/2000/svg"><circle cx="14.5" cy="32.5" r="14.5" fill="url(#paint0_radial_134_7)" fill-opacity=".67"/><path d="M14.227 40.41c-2.597 0-4.824-.547-6.683-1.64-1.859-1.12-3.28-2.733-4.264-4.838-.984-2.105-1.476-4.701-1.476-7.79 0-3.28.588-6.054 1.763-8.323 1.203-2.269 2.856-3.99 4.961-5.166 2.132-1.175 4.578-1.763 7.339-1.763 1.449 0 2.829.15 4.141.451 1.34.3 2.474.765 3.403 1.394l-1.968 4.018a7.392 7.392 0 00-2.583-1.066 12.147 12.147 0 00-2.87-.328c-2.706 0-4.852.834-6.437 2.501-1.585 1.667-2.378 4.127-2.378 7.38 0 .52.014 1.134.041 1.845.027.683.123 1.38.287 2.091l-1.64-1.804c.492-1.12 1.162-2.05 2.009-2.788a8.7 8.7 0 013.075-1.722c1.203-.383 2.501-.574 3.895-.574 1.886 0 3.567.369 5.043 1.107 1.476.71 2.651 1.736 3.526 3.075.875 1.312 1.312 2.856 1.312 4.633 0 1.886-.465 3.526-1.394 4.92-.93 1.394-2.187 2.474-3.772 3.239-1.585.765-3.362 1.148-5.33 1.148zm-.287-4.182c1.093 0 2.064-.191 2.911-.574.847-.41 1.503-.984 1.968-1.722.492-.738.738-1.599.738-2.583 0-1.503-.52-2.692-1.558-3.567-1.039-.875-2.433-1.312-4.182-1.312-1.148 0-2.16.219-3.034.656-.847.41-1.53.984-2.05 1.722-.492.738-.738 1.585-.738 2.542 0 .875.232 1.681.697 2.419.465.738 1.134 1.326 2.009 1.763.902.437 1.982.656 3.239.656z" fill="#000"/><defs><radialGradient id="paint0_radial_134_7" cx="0" cy="0" r="1" gradientUnits="userSpaceOnUse" gradientTransform="matrix(0 29 -12.3868 0 14.5 18)"><stop stop-color="#FC9F96"/><stop offset="1" stop-color="#F74030"/></radialGradient></defs></svg>