<svg width="29" height="52" fill="none" xmlns="http://www.w3.org/2000/svg"><circle cx="14.5" cy="32.5" r="14.5" fill="url(#paint0_radial_134_4)" fill-opacity=".67"/><path d="M10.824 40.41c-2.023 0-4.004-.287-5.945-.861-1.913-.601-3.526-1.421-4.838-2.46l2.296-4.141c1.039.847 2.296 1.53 3.772 2.05 1.476.52 3.02.779 4.633.779 1.913 0 3.403-.383 4.469-1.148 1.066-.793 1.599-1.859 1.599-3.198 0-1.312-.492-2.35-1.476-3.116-.984-.765-2.57-1.148-4.756-1.148H7.954v-3.649l8.2-9.758.697 2.009H1.435V11.3h19.557v3.567l-8.2 9.758-2.788-1.64h1.599c3.526 0 6.164.793 7.913 2.378 1.777 1.558 2.665 3.567 2.665 6.027 0 1.613-.41 3.102-1.23 4.469-.82 1.367-2.077 2.474-3.772 3.321-1.667.82-3.786 1.23-6.355 1.23z" fill="#000"/><defs><radialGradient id="paint0_radial_134_4" cx="0" cy="0" r="1" gradientUnits="userSpaceOnUse" gradientTransform="matrix(0 29 -12.3868 0 14.5 18)"><stop stop-color="#FC9F96"/><stop offset="1" stop-color="#F74030"/></radialGradient></defs></svg>