<svg width="100" height="90" fill="none" xmlns="http://www.w3.org/2000/svg"><path d="M16.306 33.843L49.639 1.72l33.998 32.75-34.94 34.034-32.391-34.662z" fill="#F74030"/><path d="M51.71 46.592V22.283h3.17v12.06h.307l11.76-12.06h4.141L60.095 33.25l10.993 13.342h-3.835l-9.1-11.3-3.273 3.418v7.882h-3.17z" fill="#1E1E1E"/><path d="M70.946 22.283l12.823 12.154-12.68 12.3L60.116 33.28l10.829-10.997z" fill="#8C30E9"/><path d="M0 82.976V64.244h1.175v8.146h.777L4.7 64.244h1.514l-3.087 9.024 3.127 9.708H4.74l-2.51-7.903H1.176v7.903H0zm9.781.439c-.485 0-.924-.224-1.32-.671-.394-.455-.708-1.11-.94-1.963-.233-.862-.349-1.903-.349-3.123 0-1.073.086-1.943.259-2.61.173-.674.403-1.203.692-1.585.289-.382.607-.666.956-.853a5.93 5.93 0 011.06-.464c.465-.146.842-.256 1.13-.329.293-.081.505-.215.638-.402.136-.187.204-.513.204-.976v-.097c0-1.204-.134-2.139-.403-2.805-.266-.667-.669-1-1.21-1-.56 0-1 .3-1.32.902a6.797 6.797 0 00-.672 1.927l-1.115-.976c.2-1.138.465-2.024.797-2.658.335-.643.7-1.09 1.095-1.342.398-.26.79-.39 1.175-.39.246 0 .528.073.847.22.322.138.632.426.93.865.303.44.553 1.102.753 1.988.199.886.298 2.073.298 3.561v12.342h-1.175v-2.537h-.06c-.08.407-.212.842-.398 1.305a3.692 3.692 0 01-.742 1.183 1.5 1.5 0 01-1.13.488zm.18-2.586c.464 0 .856-.223 1.174-.67.322-.448.565-1.025.727-1.732a9.74 9.74 0 00.25-2.232v-2.634c-.05.146-.16.28-.33.402a3.07 3.07 0 01-.577.305 12 12 0 01-.632.22 14.23 14.23 0 00-.493.146 2.564 2.564 0 00-.857.476c-.262.211-.474.532-.637.963-.16.423-.239 1-.239 1.732 0 1 .151 1.756.453 2.268.306.504.692.756 1.16.756zm8.577 8.537V58h1.175v31.366h-1.175zm0-6c-.518 0-.99-.228-1.414-.683-.425-.464-.79-1.118-1.096-1.964-.305-.853-.54-1.873-.707-3.06a28.688 28.688 0 01-.249-3.952c0-1.463.083-2.788.25-3.975.165-1.195.401-2.22.706-3.073.306-.854.67-1.509 1.096-1.964.425-.463.896-.695 1.414-.695h.358v19.366h-.358zm0-2.585h.199V66.585h-.2c-.391 0-.731.196-1.02.586-.289.382-.528.906-.717 1.573a13.969 13.969 0 00-.418 2.268 25.84 25.84 0 00-.135 2.695c0 1.252.082 2.415.244 3.488.163 1.073.414 1.94.752 2.598.339.658.77.987 1.295.987zm1.175 2.585h-.359V64h.359c.517 0 .989.232 1.414.695.425.455.79 1.11 1.095 1.964.305.853.541 1.878.707 3.073.166 1.187.249 2.512.249 3.975 0 1.448-.083 2.765-.249 3.952-.166 1.186-.401 2.207-.707 3.06-.305.846-.67 1.5-1.095 1.964-.425.455-.896.683-1.414.683zm0-2.585c.395 0 .735-.188 1.02-.562.29-.382.526-.902.712-1.56.19-.667.329-1.423.419-2.269.092-.853.139-1.748.139-2.683a23.53 23.53 0 00-.244-3.5c-.163-1.081-.413-1.955-.752-2.622-.338-.666-.77-1-1.294-1h-.2v14.196h.2zm8.467 2.585c-.736 0-1.372-.398-1.906-1.195-.531-.805-.941-1.927-1.23-3.366-.286-1.447-.428-3.13-.428-5.049 0-1.919.142-3.61.428-5.073.289-1.472.69-2.618 1.205-3.44C26.767 64.416 27.37 64 28.06 64c.398 0 .792.163 1.18.488.388.325.742.853 1.06 1.585.32.724.573 1.683.762 2.878.19 1.195.284 2.667.284 4.415v1.22h-5.895v-2.488h4.7c0-1.057-.086-2-.259-2.83-.169-.829-.411-1.483-.727-1.963-.312-.48-.68-.72-1.105-.72-.468 0-.873.285-1.215.854-.338.561-.599 1.293-.781 2.195-.183.903-.274 1.87-.274 2.903v1.658c0 1.415.1 2.614.298 3.598.203.975.483 1.72.842 2.231.358.504.775.757 1.25.757.308 0 .587-.106.836-.318.252-.22.47-.544.652-.975.183-.44.324-.984.424-1.634l1.135.78c-.12.943-.32 1.772-.603 2.488-.282.707-.63 1.26-1.045 1.659-.415.39-.882.585-1.4.585zm4.278-.39v-2.683h.278c.23 0 .42-.11.573-.33.153-.227.275-.621.368-1.182.097-.57.17-1.358.22-2.366.053-1.017.09-2.31.114-3.878l.14-8.293h5.098v18.732h-1.175v-16.05h-2.808l-.12 6.684a73.217 73.217 0 01-.17 4.06c-.082 1.163-.21 2.139-.383 2.928-.169.788-.395 1.382-.677 1.78-.282.398-.635.598-1.06.598h-.398zm9.962-11.952h2.191c.896 0 1.582.557 2.056 1.671.475 1.114.712 2.525.712 4.232 0 1.122-.106 2.142-.318 3.06-.213.911-.525 1.639-.937 2.184-.411.536-.916.805-1.513.805h-3.206V64.244h1.175v16.049h2.031c.465 0 .846-.301 1.145-.903.299-.601.448-1.374.448-2.317 0-.992-.15-1.8-.448-2.427-.299-.626-.68-.939-1.145-.939h-2.19v-2.683zm13.798 12.342c-.717 0-1.334-.415-1.852-1.244-.518-.83-.916-1.972-1.195-3.427s-.418-3.118-.418-4.988c0-1.902.142-3.581.428-5.036.289-1.464.69-2.606 1.205-3.427.518-.83 1.122-1.244 1.812-1.244.538 0 1.022.244 1.454.732.431.487.785 1.17 1.06 2.049.276.877.447 1.902.513 3.073H58.05c-.09-.854-.288-1.61-.597-2.269-.306-.666-.717-1-1.235-1-.458 0-.86.293-1.205.878-.342.578-.609 1.395-.801 2.452-.19 1.048-.284 2.28-.284 3.695 0 1.447.093 2.707.279 3.78.189 1.073.454 1.907.796 2.5.345.594.75.89 1.215.89.305 0 .583-.13.831-.39.25-.26.46-.634.633-1.122.172-.487.295-1.073.368-1.756h1.175c-.066 1.106-.23 2.102-.493 2.988-.258.878-.602 1.577-1.03 2.098-.425.512-.92.768-1.484.768zm7.932 0c-.738 0-1.373-.398-1.908-1.195-.53-.805-.94-1.927-1.23-3.366-.285-1.447-.428-3.13-.428-5.049 0-1.919.143-3.61.429-5.073.288-1.472.69-2.618 1.205-3.44.517-.828 1.121-1.243 1.812-1.243.398 0 .792.163 1.18.488.388.325.742.853 1.06 1.585.32.724.573 1.683.762 2.878.19 1.195.284 2.667.284 4.415v1.22h-5.895v-2.488h4.7c0-1.057-.086-2-.259-2.83-.17-.829-.411-1.483-.727-1.963-.312-.48-.68-.72-1.105-.72-.468 0-.873.285-1.215.854-.338.561-.6 1.293-.782 2.195a14.68 14.68 0 00-.273 2.903v1.658c0 1.415.1 2.614.298 3.598.203.975.483 1.72.842 2.231.358.504.775.757 1.25.757.308 0 .587-.106.836-.318.252-.22.47-.544.652-.975.183-.44.324-.984.423-1.634l1.135.78c-.119.943-.32 1.772-.602 2.488-.282.707-.63 1.26-1.045 1.659-.415.39-.882.585-1.4.585zM69.103 90V64.244h1.136v2.975h.139a38.7 38.7 0 01.359-1.243c.156-.513.378-.968.667-1.366.292-.407.687-.61 1.185-.61.644 0 1.211.394 1.702 1.183.492.788.875 1.906 1.15 3.354.276 1.447.414 3.154.414 5.121 0 1.984-.138 3.704-.413 5.16-.276 1.446-.658 2.568-1.146 3.365-.488.788-1.05 1.183-1.687 1.183-.492 0-.885-.2-1.18-.598a4.698 4.698 0 01-.683-1.378c-.159-.52-.282-.951-.368-1.292h-.1V90h-1.175zm1.156-16.39c0 1.414.084 2.662.254 3.744.169 1.073.416 1.914.741 2.524.326.602.724.903 1.195.903.492 0 .901-.318 1.23-.952.332-.642.58-1.504.747-2.585.17-1.09.254-2.3.254-3.634 0-1.317-.083-2.504-.25-3.561-.162-1.065-.41-1.907-.741-2.525-.329-.626-.742-.939-1.24-.939-.478 0-.88.297-1.205.89-.325.586-.57 1.407-.737 2.464-.166 1.049-.249 2.272-.249 3.67zm7.388 9.366V64.244h3.127c.823 0 1.477.455 1.962 1.366.484.91.727 2.114.727 3.61 0 1.138-.138 2.02-.414 2.646-.275.618-.629 1.036-1.06 1.256.282.097.556.341.821.732.27.39.492.927.668 1.61.175.674.263 1.504.263 2.487 0 .96-.1 1.817-.298 2.573-.2.757-.485 1.354-.857 1.793-.371.44-.816.659-1.334.659h-3.605zm1.115-2.635h2.49c.405 0 .722-.235.95-.707.23-.471.344-1.114.344-1.927 0-.967-.114-1.727-.343-2.28-.23-.561-.546-.842-.951-.842h-2.49v5.757zm0-8.243h2.012c.315 0 .586-.106.811-.317.226-.22.399-.529.518-.927.123-.407.185-.886.185-1.44 0-.788-.135-1.406-.404-1.853-.269-.455-.639-.683-1.11-.683h-2.011v5.22zm7.933 6.634l3.684-14.488h1.355v18.732h-1.175V68.488l-3.665 14.488H85.52V64.244h1.175v14.488zm10.298 4.634c-.717 0-1.335-.415-1.852-1.244-.518-.83-.916-1.972-1.195-3.427-.28-1.455-.419-3.118-.419-4.988 0-1.902.143-3.581.429-5.036.288-1.464.69-2.606 1.204-3.427.518-.83 1.122-1.244 1.813-1.244.537 0 1.022.244 1.454.732.431.487.785 1.17 1.06 2.049.276.877.447 1.902.513 3.073h-1.175c-.09-.854-.289-1.61-.597-2.269-.306-.666-.718-1-1.235-1-.458 0-.86.293-1.205.878-.342.578-.61 1.395-.802 2.452-.189 1.048-.284 2.28-.284 3.695 0 1.447.093 2.707.28 3.78.189 1.073.454 1.907.796 2.5.345.594.75.89 1.215.89.305 0 .582-.13.831-.39.25-.26.46-.634.633-1.122.172-.487.295-1.073.368-1.756H100c-.066 1.106-.23 2.102-.493 2.988-.259.878-.602 1.577-1.03 2.098-.425.512-.92.768-1.484.768z" fill="#FF5121"/></svg>