<svg width="23" height="25" fill="none" xmlns="http://www.w3.org/2000/svg"><path d="M16.07 14.844c-1.49 0-2.157.781-4.57.781-2.464 0-3.132-.781-4.62-.781-3.8 0-6.88 2.978-6.88 6.592v1.22C0 23.975 1.078 25 2.464 25h18.072C21.87 25 23 23.975 23 22.656v-1.22c0-3.614-3.132-6.592-6.93-6.592zm4.466 7.812H2.464v-1.22c0-2.344 1.951-4.248 4.415-4.248.77 0 1.951.78 4.621.78 2.618 0 3.8-.78 4.57-.78 2.463 0 4.466 1.904 4.466 4.248v1.22zM11.5 14.063c4.056 0 7.393-3.126 7.393-7.032C18.893 3.174 15.556 0 11.5 0 7.393 0 4.107 3.174 4.107 7.031c0 3.907 3.286 7.032 7.393 7.032zm0-11.72c2.67 0 4.929 2.15 4.929 4.688 0 2.588-2.26 4.688-4.929 4.688-2.721 0-4.929-2.1-4.929-4.688 0-2.539 2.208-4.687 4.929-4.687z" fill="#444" fill-opacity=".4"/></svg>