<svg width="21" height="21" fill="none" xmlns="http://www.w3.org/2000/svg"><path d="M5.974 2.13c.995.725 1.77 1.716 2.433 2.664l.385.56.363.537a1.31 1.31 0 01-.223 1.73l-1.7 1.262a.418.418 0 00-.123.537c.385.7 1.07 1.741 1.854 2.525.785.784 1.875 1.514 2.624 1.943a.42.42 0 00.56-.141l1.107-1.684a1.31 1.31 0 011.791-.29l.578.4c1.08.75 2.239 1.6 3.126 2.736a1.28 1.28 0 01.164 1.293c-.729 1.701-2.574 3.15-4.493 3.08l-.262-.015-.203-.018-.224-.026-.245-.033-.266-.044a9.251 9.251 0 01-.14-.026l-.292-.062a11.706 11.706 0 01-.153-.035l-.32-.082-.335-.096-.35-.113c-1.608-.546-3.65-1.617-5.743-3.711-2.094-2.094-3.165-4.135-3.71-5.743l-.114-.35-.096-.336-.082-.319-.068-.301c-.02-.095-.038-.19-.055-.284l-.043-.266-.035-.245-.025-.224-.018-.203-.014-.262c-.07-1.913 1.394-3.771 3.088-4.497a1.28 1.28 0 011.259.139zm7.087 3.132l.1.011a3.05 3.05 0 012.49 2.579.872.872 0 01-1.705.342l-.02-.1a1.306 1.306 0 00-.932-1.074l-.135-.03a.871.871 0 01.202-1.728zm.007-2.649a5.227 5.227 0 015.227 5.227.872.872 0 01-1.737.102l-.006-.102a3.483 3.483 0 00-3.256-3.477l-.228-.007a.871.871 0 010-1.743z" fill="#fff"/></svg>