<svg width="22" height="21" fill="none" xmlns="http://www.w3.org/2000/svg"><path d="M1.546.912L5.584.049c.945-.205 1.89.247 2.233 1.068l1.89 4.19c.344.74.129 1.644-.558 2.178L7.43 8.84c1.202 2.136 3.092 3.903 5.326 5.094l1.417-1.643a1.995 1.995 0 012.277-.534l4.38 1.767c.86.37 1.332 1.273 1.117 2.177l-.902 3.861c-.214.863-1.03 1.438-1.932 1.438C8.59 21 0 12.866 0 2.76 0 1.899.644 1.118 1.546.913zm17.482 18.116l.902-3.697-4.21-1.725-2.405 2.793c-4.252-1.93-6.443-4.026-8.461-8.093l2.92-2.3L5.97 1.98l-3.908.863c.043 8.914 7.645 16.144 16.966 16.185z" fill="#444" fill-opacity=".4"/></svg>